<svg width="78" height="21" viewBox="0 0 78 21" fill="none" xmlns="http://www.w3.org/2000/svg">
<path d="M19.8284 1.30271C20.0161 1.30271 20.1635 1.35461 20.2707 1.45842C20.3779 1.56222 20.4316 1.70495 20.4316 1.88661V19.793C20.4316 19.9746 20.3779 20.1173 20.2707 20.2211C20.1635 20.325 20.0161 20.3769 19.8284 20.3769H17.0942C16.7457 20.3769 16.5447 20.1822 16.491 19.793L16.3302 17.8466C15.5528 18.7809 14.6146 19.5205 13.5156 20.0654C12.4433 20.6104 11.237 20.8829 9.89672 20.8829C8.0739 20.8829 6.43872 20.4417 4.99118 19.5594C3.54365 18.677 2.40438 17.4703 1.57339 15.9392C0.7424 14.4081 0.326904 12.7212 0.326904 10.8787C0.326904 9.03617 0.7424 7.34934 1.57339 5.81822C2.40438 4.2871 3.54365 3.08037 4.99118 2.19803C6.43872 1.31568 8.0739 0.874512 9.89672 0.874512C11.237 0.874512 12.4433 1.15998 13.5156 1.7309C14.6146 2.27588 15.5662 3.02846 16.3704 3.98866L16.491 1.88661C16.5447 1.49734 16.7457 1.30271 17.0942 1.30271H19.8284ZM10.339 17.1459C11.4649 17.1459 12.4835 16.8605 13.3949 16.2895C14.3063 15.7186 15.0167 14.9531 15.526 13.9929C16.0353 13.0327 16.29 11.9816 16.29 10.8398C16.29 9.72388 16.0353 8.68583 15.526 7.72564C15.0167 6.76544 14.3063 6.01286 13.3949 5.46788C12.4835 4.89695 11.4649 4.61149 10.339 4.61149C9.21316 4.61149 8.19452 4.88398 7.28311 5.42895C6.3717 5.97393 5.66134 6.72651 5.15202 7.68671C4.6427 8.62095 4.38804 9.67198 4.38804 10.8398C4.38804 12.0076 4.6427 13.0846 5.15202 14.0707C5.68814 15.0309 6.39851 15.7835 7.28311 16.3285C8.19452 16.8734 9.21316 17.1459 10.339 17.1459ZM41.1023 1.30271C41.29 1.30271 41.4374 1.35461 41.5446 1.45842C41.6518 1.56222 41.7055 1.70495 41.7055 1.88661V19.793C41.7055 19.9746 41.6518 20.1173 41.5446 20.2211C41.4374 20.325 41.29 20.3769 41.1023 20.3769H38.2475C37.899 20.3769 37.6979 20.1822 37.6443 19.793L37.4835 17.5352C36.7597 18.5732 35.8885 19.3907 34.8699 19.9876C33.8512 20.5845 32.6986 20.8829 31.4119 20.8829C29.1333 20.8829 27.3373 20.1952 26.0238 18.8198C24.7103 17.4444 24.0536 15.498 24.0536 12.9808V1.88661C24.0536 1.70495 24.1072 1.56222 24.2144 1.45842C24.3216 1.35461 24.4691 1.30271 24.6567 1.30271H27.6724C27.8601 1.30271 28.0075 1.35461 28.1147 1.45842C28.2219 1.56222 28.2756 1.70495 28.2756 1.88661V12.3969C28.2756 13.9799 28.6508 15.1736 29.4014 15.9781C30.1788 16.7567 31.1974 17.1459 32.4573 17.1459C33.476 17.1459 34.3606 16.9124 35.1111 16.4452C35.8885 15.9522 36.4782 15.3812 36.8803 14.7325C37.2824 14.0577 37.4835 13.4738 37.4835 12.9808V1.88661C37.4835 1.70495 37.5371 1.56222 37.6443 1.45842C37.7515 1.35461 37.899 1.30271 38.0866 1.30271H41.1023ZM57.1969 1.61412C57.3578 1.76983 57.4382 1.91256 57.4382 2.04232C57.4382 2.17207 57.4114 2.27588 57.3578 2.35373L56.4329 4.49471C56.3525 4.67637 56.2453 4.79315 56.1113 4.84505C56.0041 4.89695 55.8432 4.89695 55.6288 4.84505C55.0926 4.68934 54.5565 4.61149 54.0204 4.61149C52.7873 4.61149 51.7687 5.01373 50.9645 5.81822C50.1871 6.59676 49.7984 7.5829 49.7984 8.77666V19.793C49.7984 19.9746 49.7448 20.1173 49.6376 20.2211C49.5304 20.325 49.3829 20.3769 49.1953 20.3769H46.1796C45.9919 20.3769 45.8445 20.325 45.7373 20.2211C45.6301 20.1173 45.5764 19.9746 45.5764 19.793V1.88661C45.5764 1.70495 45.6301 1.56222 45.7373 1.45842C45.8445 1.35461 45.9919 1.30271 46.1796 1.30271H48.9942C49.3427 1.30271 49.5438 1.49734 49.5974 1.88661L49.7582 3.7551C50.9645 1.83471 52.6131 0.874512 54.704 0.874512C55.7226 0.874512 56.5536 1.12105 57.1969 1.61412ZM77.3151 1.30271C77.5028 1.30271 77.6502 1.35461 77.7574 1.45842C77.8647 1.56222 77.9183 1.70495 77.9183 1.88661V19.793C77.9183 19.9746 77.8647 20.1173 77.7574 20.2211C77.6502 20.325 77.5028 20.3769 77.3151 20.3769H74.5809C74.2324 20.3769 74.0314 20.1822 73.9778 19.793L73.8169 17.8466C73.0396 18.7809 72.1013 19.5205 71.0023 20.0654C69.93 20.6104 68.7238 20.8829 67.3835 20.8829C65.5606 20.8829 63.9255 20.4417 62.4779 19.5594C61.0304 18.677 59.8911 17.4703 59.0601 15.9392C58.2291 14.4081 57.8136 12.7212 57.8136 10.8787C57.8136 9.03617 58.2291 7.34934 59.0601 5.81822C59.8911 4.2871 61.0304 3.08037 62.4779 2.19803C63.9255 1.31568 65.5606 0.874512 67.3835 0.874512C68.7238 0.874512 69.93 1.15998 71.0023 1.7309C72.1013 2.27588 73.053 3.02846 73.8571 3.98866L73.9778 1.88661C74.0314 1.49734 74.2324 1.30271 74.5809 1.30271H77.3151ZM67.8258 17.1459C68.9516 17.1459 69.9702 16.8605 70.8817 16.2895C71.7931 15.7186 72.5034 14.9531 73.0127 13.9929C73.5221 13.0327 73.7767 11.9816 73.7767 10.8398C73.7767 9.72388 73.5221 8.68583 73.0127 7.72564C72.5034 6.76544 71.7931 6.01286 70.8817 5.46788C69.9702 4.89695 68.9516 4.61149 67.8258 4.61149C66.6999 4.61149 65.6813 4.88398 64.7698 5.42895C63.8584 5.97393 63.1481 6.72651 62.6388 7.68671C62.1294 8.62095 61.8748 9.67198 61.8748 10.8398C61.8748 12.0076 62.1294 13.0846 62.6388 14.0707C63.1749 15.0309 63.8852 15.7835 64.7698 16.3285C65.6813 16.8734 66.6999 17.1459 67.8258 17.1459Z" fill="white"/>
</svg>
