<svg width="130" height="36" viewBox="0 0 130 36" fill="none" xmlns="http://www.w3.org/2000/svg">
<g clip-path="url(#clip0_53_1066)">
<path d="M17.7008 34.431C26.5514 34.431 33.7263 27.485 33.7263 18.9167C33.7263 10.3484 26.5514 3.4024 17.7008 3.4024C8.85019 3.4024 1.67535 10.3484 1.67535 18.9167C1.67535 27.485 8.85019 34.431 17.7008 34.431Z" fill="white"/>
<path d="M22.8362 25.2988L7.80444 30.6885C5.00505 31.6923 2.34956 28.9183 3.5959 26.2922L13.5625 5.29201C14.1091 4.14044 15.2982 3.40244 16.6073 3.40244H18.1456C19.4698 3.40244 20.6698 4.15741 21.2076 5.32886L27.0247 18L31.9322 29.2834C32.7841 31.2423 31.2984 33.4085 29.103 33.4085C27.8478 33.4085 26.7191 32.6688 26.2528 31.5404L19.1267 14.2933C18.8374 13.5932 18.1371 13.1341 17.3582 13.1341C16.6128 13.1341 15.9359 13.5551 15.626 14.2114L11.1085 23.7782" stroke="#040208" stroke-width="3.68626" stroke-linecap="round" stroke-linejoin="round"/>
</g>
<path d="M70.4098 9.1698C70.5975 9.1698 70.7449 9.22171 70.8521 9.32551C70.9594 9.42932 71.013 9.57205 71.013 9.75371V27.66C71.013 27.8417 70.9594 27.9844 70.8521 28.0882C70.7449 28.192 70.5975 28.244 70.4098 28.244H67.6756C67.3271 28.244 67.1261 28.0493 67.0725 27.66L66.9116 25.7137C66.1342 26.648 65.196 27.3876 64.097 27.9325C63.0247 28.4775 61.8184 28.75 60.4781 28.75C58.6553 28.75 57.0201 28.3088 55.5726 27.4265C54.1251 26.5441 52.9858 25.3374 52.1548 23.8063C51.3238 22.2752 50.9083 20.5883 50.9083 18.7458C50.9083 16.9033 51.3238 15.2164 52.1548 13.6853C52.9858 12.1542 54.1251 10.9475 55.5726 10.0651C57.0201 9.18278 58.6553 8.74161 60.4781 8.74161C61.8184 8.74161 63.0247 9.02707 64.097 9.598C65.196 10.143 66.1477 10.8956 66.9518 11.8558L67.0725 9.75371C67.1261 9.36444 67.3271 9.1698 67.6756 9.1698H70.4098ZM60.9204 25.013C62.0463 25.013 63.0649 24.7276 63.9763 24.1566C64.8878 23.5857 65.5981 22.8201 66.1074 21.86C66.6168 20.8998 66.8714 19.8487 66.8714 18.7069C66.8714 17.591 66.6168 16.5529 66.1074 15.5927C65.5981 14.6325 64.8878 13.88 63.9763 13.335C63.0649 12.764 62.0463 12.4786 60.9204 12.4786C59.7946 12.4786 58.7759 12.7511 57.8645 13.296C56.9531 13.841 56.2428 14.5936 55.7334 15.5538C55.2241 16.488 54.9695 17.5391 54.9695 18.7069C54.9695 19.8747 55.2241 20.9517 55.7334 21.9378C56.2696 22.898 56.9799 23.6506 57.8645 24.1956C58.7759 24.7405 59.7946 25.013 60.9204 25.013ZM91.6837 9.1698C91.8714 9.1698 92.0188 9.22171 92.126 9.32551C92.2333 9.42932 92.2869 9.57205 92.2869 9.75371V27.66C92.2869 27.8417 92.2333 27.9844 92.126 28.0882C92.0188 28.192 91.8714 28.244 91.6837 28.244H88.8289C88.4804 28.244 88.2794 28.0493 88.2257 27.66L88.0649 25.4023C87.3411 26.4403 86.4699 27.2578 85.4513 27.8547C84.4327 28.4516 83.28 28.75 81.9933 28.75C79.7148 28.75 77.9188 28.0623 76.6053 26.6869C75.2917 25.3115 74.635 23.3651 74.635 20.8479V9.75371C74.635 9.57205 74.6886 9.42932 74.7958 9.32551C74.9031 9.22171 75.0505 9.1698 75.2381 9.1698H78.2538C78.4415 9.1698 78.5889 9.22171 78.6961 9.32551C78.8034 9.42932 78.857 9.57205 78.857 9.75371V20.264C78.857 21.847 79.2323 23.0407 79.9828 23.8452C80.7602 24.6238 81.7788 25.013 83.0387 25.013C84.0574 25.013 84.942 24.7795 85.6926 24.3123C86.4699 23.8193 87.0597 23.2483 87.4618 22.5996C87.8639 21.9248 88.0649 21.3409 88.0649 20.8479V9.75371C88.0649 9.57205 88.1185 9.42932 88.2257 9.32551C88.333 9.22171 88.4804 9.1698 88.668 9.1698H91.6837ZM107.778 9.48122C107.939 9.63693 108.02 9.77966 108.02 9.90941C108.02 10.0392 107.993 10.143 107.939 10.2208L107.014 12.3618C106.934 12.5435 106.827 12.6602 106.693 12.7121C106.585 12.764 106.425 12.764 106.21 12.7121C105.674 12.5564 105.138 12.4786 104.602 12.4786C103.369 12.4786 102.35 12.8808 101.546 13.6853C100.769 14.4639 100.38 15.45 100.38 16.6438V27.66C100.38 27.8417 100.326 27.9844 100.219 28.0882C100.112 28.192 99.9643 28.244 99.7767 28.244H96.761C96.5734 28.244 96.4259 28.192 96.3187 28.0882C96.2115 27.9844 96.1579 27.8417 96.1579 27.66V9.75371C96.1579 9.57205 96.2115 9.42932 96.3187 9.32551C96.4259 9.22171 96.5734 9.1698 96.761 9.1698H99.5757C99.9241 9.1698 100.125 9.36444 100.179 9.75371L100.34 11.6222C101.546 9.7018 103.194 8.74161 105.285 8.74161C106.304 8.74161 107.135 8.98815 107.778 9.48122ZM127.897 9.1698C128.084 9.1698 128.232 9.22171 128.339 9.32551C128.446 9.42932 128.5 9.57205 128.5 9.75371V27.66C128.5 27.8417 128.446 27.9844 128.339 28.0882C128.232 28.192 128.084 28.244 127.897 28.244H125.162C124.814 28.244 124.613 28.0493 124.559 27.66L124.398 25.7137C123.621 26.648 122.683 27.3876 121.584 27.9325C120.511 28.4775 119.305 28.75 117.965 28.75C116.142 28.75 114.507 28.3088 113.059 27.4265C111.612 26.5441 110.473 25.3374 109.642 23.8063C108.811 22.2752 108.395 20.5883 108.395 18.7458C108.395 16.9033 108.811 15.2164 109.642 13.6853C110.473 12.1542 111.612 10.9475 113.059 10.0651C114.507 9.18278 116.142 8.74161 117.965 8.74161C119.305 8.74161 120.511 9.02707 121.584 9.598C122.683 10.143 123.634 10.8956 124.439 11.8558L124.559 9.75371C124.613 9.36444 124.814 9.1698 125.162 9.1698H127.897ZM118.407 25.013C119.533 25.013 120.552 24.7276 121.463 24.1566C122.374 23.5857 123.085 22.8201 123.594 21.86C124.103 20.8998 124.358 19.8487 124.358 18.7069C124.358 17.591 124.103 16.5529 123.594 15.5927C123.085 14.6325 122.374 13.88 121.463 13.335C120.552 12.764 119.533 12.4786 118.407 12.4786C117.281 12.4786 116.263 12.7511 115.351 13.296C114.44 13.841 113.729 14.5936 113.22 15.5538C112.711 16.488 112.456 17.5391 112.456 18.7069C112.456 19.8747 112.711 20.9517 113.22 21.9378C113.756 22.898 114.467 23.6506 115.351 24.1956C116.263 24.7405 117.281 25.013 118.407 25.013Z" fill="white"/>
<defs>
<clipPath id="clip0_53_1066">
<rect width="35.1831" height="35.6829" fill="white" transform="translate(0 0.158539)"/>
</clipPath>
</defs>
</svg>
